<svg width="48" height="47" viewBox="0 0 48 47" fill="none" xmlns="http://www.w3.org/2000/svg">
<g clip-path="url(#clip0_9_117)">
<path d="M44.95 24.6923C45.6001 24.0742 46.1158 23.3405 46.4676 22.5329C46.8194 21.7254 47.0005 20.8599 47.0005 19.9858C47.0005 19.1117 46.8194 18.2462 46.4676 17.4386C46.1158 16.6311 45.6001 15.8973 44.95 15.2793L32.696 3.63189C32.046 3.01378 31.2743 2.52347 30.425 2.18895C29.5756 1.85443 28.6653 1.68225 27.746 1.68225C26.8267 1.68225 25.9164 1.85443 25.0671 2.18895C24.2177 2.52347 23.446 3.01378 22.796 3.63189L14.124 11.8773C12.2487 13.6604 11.1952 16.0788 11.1952 18.6004C11.1952 21.1221 12.2487 23.5405 14.124 25.3236L14.964 26.1242L2.30602 38.1595C1.49134 38.9622 1.04067 40.0369 1.05102 41.1523C1.06136 42.2678 1.53189 43.3348 2.36133 44.1236C3.19077 44.9125 4.31282 45.3603 5.48596 45.3704C6.65911 45.3806 7.78956 44.9525 8.63402 44.1781L21.294 32.1428L22.134 32.9415C23.0626 33.8246 24.1652 34.5252 25.3786 35.0032C26.592 35.4812 27.8926 35.7272 29.206 35.7272C30.5195 35.7272 31.82 35.4812 33.0335 35.0032C34.2469 34.5252 35.3494 33.8246 36.278 32.9415L44.95 24.6923Z" stroke="#6F5300" stroke-width="2" stroke-linecap="round" stroke-linejoin="round"/>
<path d="M38.162 18.0879C38.4408 18.3528 38.6619 18.6673 38.8128 19.0135C38.9637 19.3597 39.0414 19.7308 39.0414 20.1055C39.0414 20.4803 38.9637 20.8513 38.8128 21.1975C38.6619 21.5437 38.4408 21.8582 38.162 22.1231L32.362 27.6283C31.615 28.3347 30.6304 28.7688 29.5807 28.8547C28.531 28.9406 27.483 28.6727 26.62 28.098C26.444 27.9804 26.3125 27.812 26.2452 27.6178C26.1778 27.4236 26.1781 27.2139 26.246 27.0198L27.42 23.673C27.4788 23.5053 27.4873 23.3254 27.4446 23.1534C27.4018 22.9815 27.3095 22.8242 27.178 22.6993L24.888 20.522C24.7566 20.3971 24.5912 20.3095 24.4103 20.2689C24.2295 20.2282 24.0404 20.2362 23.864 20.2919L20.342 21.4081C20.1386 21.4726 19.9188 21.4733 19.7149 21.4099C19.5111 21.3466 19.3341 21.2226 19.21 21.0563C18.6049 20.2354 18.3228 19.2382 18.4131 18.2393C18.5034 17.2405 18.9604 16.3037 19.704 15.593L25.494 10.0783C26.0566 9.54357 26.8195 9.24316 27.615 9.24316C28.4105 9.24316 29.1734 9.54357 29.736 10.0783L38.162 18.0879Z" stroke="#6F5300" stroke-width="2" stroke-linecap="round" stroke-linejoin="round"/>
<path d="M5.70203 41.4227C5.56942 41.4227 5.44224 41.3726 5.34847 41.2835C5.2547 41.1943 5.20203 41.0734 5.20203 40.9473C5.20203 40.8212 5.2547 40.7003 5.34847 40.6112C5.44224 40.522 5.56942 40.4719 5.70203 40.4719" stroke="#6F5300" stroke-width="2"/>
<path d="M5.70203 41.4227C5.83463 41.4227 5.96181 41.3726 6.05558 41.2835C6.14935 41.1943 6.20203 41.0734 6.20203 40.9473C6.20203 40.8212 6.14935 40.7003 6.05558 40.6112C5.96181 40.522 5.83463 40.4719 5.70203 40.4719" stroke="#6F5300" stroke-width="2"/>
</g>
<defs>
<clipPath id="clip0_9_117">
<rect y="0.731934" width="48" height="45.6388" rx="5" fill="white"/>
</clipPath>
</defs>
</svg>
