<svg width="249" height="109" viewBox="0 0 249 109" fill="none" xmlns="http://www.w3.org/2000/svg">
<path fill-rule="evenodd" clip-rule="evenodd" d="M138.672 63.7136L144.699 64.2348L140.234 54.6033C139.456 53.0486 138.485 50.5648 137.127 46.8346L134.6 37.2031H132.661V46.8346C132.661 50.8731 133.048 53.0486 133.63 53.0486H135.962V55.5347H124.113V53.0486H125.862C126.056 53.0486 126.248 52.7359 126.248 52.4277V21.3598C126.248 19.497 126.054 18.2528 125.862 17.9423C125.595 17.5539 125.25 17.3332 124.89 17.3214H123.143V14.8353H135.962C137.707 14.8353 139.457 15.4563 140.816 16.39C143.536 18.5656 144.895 21.983 144.895 27.2634C144.895 28.8157 144.508 30.0599 143.923 31.6123C142.954 33.7856 141.4 35.0298 139.65 35.3403C140.428 37.5158 144.313 47.4578 151.499 64.8535L157.323 65.1662L153.05 57.0893C150.527 51.8067 149.168 47.7683 148.971 45.595C148.777 42.1775 149.361 39.6914 150.333 37.5181C151.497 35.3425 153.244 34.4111 155.382 34.4111C158.296 34.4111 160.236 38.4495 161.207 46.8369C159.654 40.6229 157.128 38.4495 153.826 40.6229C152.854 41.2438 152.078 42.1775 151.884 43.1089L151.69 44.974C151.69 47.1496 152.274 49.0125 153.632 50.5671C154.991 52.4299 156.739 53.3614 158.876 53.3614C161.012 53.3614 162.761 52.4299 164.119 50.8753C165.478 48.702 166.256 46.2159 166.256 43.1089C166.256 40.9356 165.869 39.0705 164.897 37.5181C163.831 36.2186 162.653 35.1721 161.399 34.4111L156.933 31.925C155.188 30.6831 153.826 29.439 152.854 28.1971C150.524 25.4005 149.359 21.3621 149.359 16.7027C149.359 11.4201 150.912 7.07119 153.825 4.27691C156.351 1.48038 159.263 0.238464 162.761 0.238464C165.675 0.238464 168.004 0.859425 169.947 1.79085L170.334 9.24904C170.528 10.4909 170.139 11.1142 169.556 11.1142C168.975 11.1142 168.587 10.4932 168.391 9.24904C168.197 7.6944 167.419 6.14202 166.255 5.21059C165.283 4.27917 163.924 3.9687 162.565 3.9687C160.817 3.9687 159.458 4.58965 158.292 5.83155C156.931 7.38619 156.153 9.56177 156.153 12.356C156.153 14.2212 156.542 15.7735 157.514 17.0177C158.095 17.9491 159.26 18.8806 160.815 19.812L165.281 22.6085C167.03 23.5399 168.585 25.0946 169.944 26.647C170.938 28.2542 171.729 30.1523 172.275 32.2378C172.858 34.4134 173.246 36.5867 173.246 38.7623C173.246 45.9077 171.694 50.8798 168.587 53.6764C165.866 55.8497 161.593 57.0939 155.96 57.0939C155.573 57.0939 155.766 58.0253 156.544 59.5799C157.125 61.4428 158.097 63.3102 159.458 65.173L174.802 66.4149L187.62 68.901C187.426 69.8347 179.656 70.7661 164.312 71.6975C166.451 73.8708 168.781 75.115 170.917 76.0464C174.996 77.2883 178.684 77.2883 181.793 76.0464C183.735 75.115 186.261 73.2499 189.37 70.4533C192.865 67.3463 195.585 65.173 197.722 63.9289C201.607 61.7555 206.074 60.8218 211.123 60.8218C215.008 60.8218 218.117 61.7555 220.446 63.9289C222.388 65.7917 223.553 67.9673 223.944 70.7661C224.331 73.5604 223.944 75.7337 222.972 77.9093C221.805 80.0849 220.058 81.0163 217.922 81.0163C221.612 72.6289 218.503 67.3463 208.6 65.4835C205.686 65.173 202.773 65.4835 200.052 66.4149C197.916 67.0359 195.779 68.28 193.256 70.4533L187.04 75.115C184.514 76.9778 182.378 78.222 180.435 78.5325C176.356 79.4639 172.083 78.843 168.006 76.6697C165.675 75.115 163.54 73.5626 161.79 71.6998L154.41 72.0103L169.557 108.979L158.098 91.2733C157.517 91.2733 154.409 85.3697 148.775 73.2522L148.389 72.3207L141.009 72.9281V73.2544C141.009 73.2748 140.986 73.5377 140.983 73.5558L140.98 73.574C140.85 74.3757 140.649 75.1434 140.382 75.8538L140.385 75.8561C139.718 77.6101 138.643 78.9857 137.238 79.9829L137.216 80.001C136.669 80.3829 136.1 80.6781 135.517 80.8826C133.925 81.4363 132.273 81.3625 130.703 80.6673L130.694 80.6628C130.071 80.3886 129.463 80.0331 128.877 79.5999C127.496 78.5953 126.266 77.1303 125.268 75.3031C124.513 73.9184 124.024 72.5179 123.776 71.1038C123.524 69.6789 123.514 68.1727 123.745 66.739L123.748 66.7209C123.874 65.9174 124.076 65.1494 124.347 64.4433L124.346 64.441C125.013 62.687 126.087 61.3091 127.489 60.3142L127.559 60.2689L127.584 60.2553C127.837 60.1238 128.104 59.9992 128.395 59.8836C128.671 59.7726 128.956 59.6751 129.248 59.5958C130.826 59.1555 132.446 59.2684 133.994 59.9267C134.401 60.0275 134.803 60.1714 135.198 60.3573C136.244 60.8626 137.233 61.6694 138.002 62.653L138.063 62.7459L138.672 63.7136ZM139.456 73.1026V72.3117L139.464 72.1372C139.548 71.2301 139.501 70.3043 139.325 69.4313C139.14 68.5112 138.808 67.5775 138.304 66.6325L137.015 64.5702C136.339 63.7357 135.571 63.1115 134.751 62.73C134.584 62.6485 134.415 62.576 134.245 62.5125H134.242C134.074 62.4518 133.904 62.4027 133.733 62.3651L133.713 62.3606L133.62 62.3289C132.034 61.6497 130.365 61.6333 128.773 62.2813H128.77C128.546 62.372 128.314 62.4807 128.079 62.6054C126.991 63.3895 126.169 64.432 125.677 65.7237H125.675C125.581 65.973 125.497 66.2336 125.428 66.492C125.36 66.7603 125.303 67.036 125.258 67.3169L125.255 67.335C125.092 68.3707 125.092 69.4018 125.272 70.4262C125.461 71.4958 125.846 72.5768 126.444 73.676L126.452 73.685C127.303 75.2406 128.353 76.487 129.53 77.3405C130.039 77.7148 130.566 78.0217 131.107 78.2583L131.115 78.2628C132.444 78.8555 133.843 78.9232 135.191 78.46C135.673 78.2836 136.143 78.0363 136.597 77.7212L136.622 77.7031C137.729 76.9167 138.565 75.8651 139.06 74.5553H139.063C139.239 74.1056 139.372 73.6158 139.456 73.1026ZM137.125 32.8565C136.347 34.0984 135.183 34.7216 133.627 34.7216H132.658V18.5656C132.658 18.2551 132.852 17.9446 133.433 17.9446C134.794 17.9446 136.153 18.876 137.124 20.7411C138.094 22.6063 138.482 24.7796 138.482 26.9552C138.484 29.439 138.097 31.3041 137.125 32.8565ZM199.667 14.8376V17.3236H198.308L197.725 17.6364L197.53 18.5678V46.8391C197.53 50.8776 197.917 53.0532 198.502 53.0532H200.639V55.5392H188.986V53.0532H190.731C190.925 53.0532 191.118 52.7404 191.118 52.4322V35.0343H182.573V46.8391C182.573 50.8776 182.963 53.0532 183.545 53.0532H185.876V55.5392H174.03V53.0532H175.778C175.972 53.0532 176.165 52.7404 176.165 52.4322V21.3598C176.165 19.497 175.971 18.2528 175.778 17.9423C175.581 17.6319 175.389 17.3214 175 17.3214H173.058V14.8353H184.907V17.3214H183.351L182.767 17.6341L182.573 18.5656V32.2332H191.118V21.3598C191.118 19.497 190.924 18.2528 190.731 17.9423C190.537 17.6319 190.344 17.3214 189.953 17.3214H188.011V14.8353L199.667 14.8376ZM203.939 51.4963C206.462 54.9138 209.573 56.7789 213.455 56.7789C218.312 56.7789 222.003 53.9823 224.526 48.702C226.663 44.6636 227.633 39.6914 227.633 34.0983C227.633 27.8843 226.469 22.9145 223.944 19.1865C221.418 15.4585 218.309 13.5934 214.424 13.5934C209.57 13.5934 205.88 16.3899 203.354 21.6726C201.217 26.0215 200.246 30.9913 200.246 36.2739C200.248 42.7984 201.415 47.7683 203.939 51.4963ZM227.054 14.8376V17.3236H228.993C229.383 17.3236 229.577 17.6364 229.771 17.9446C229.965 18.2551 230.161 19.4992 230.161 21.3621V52.43C230.161 52.7404 229.964 53.0509 229.771 53.0509H228.026V55.537H239.872V53.0509H237.541C236.957 53.0509 236.569 50.8753 236.569 46.8369V36.5844L239.87 37.2054C242.785 37.2054 245.114 35.9635 246.863 33.4774C248.222 31.3041 249 28.8158 249 26.0215C249 23.2249 248.416 21.0516 247.058 18.876C245.505 16.0818 243.173 14.8376 240.064 14.8376H227.054ZM212.874 16.39C215.789 16.39 218.118 19.1865 219.477 25.0901C220.641 29.439 221.225 34.4088 221.225 39.6914C221.225 43.7299 220.838 46.8369 220.06 49.3229C218.896 52.43 217.146 53.9846 215.011 53.9846C212.097 53.9846 209.767 51.1903 208.212 45.5973C207.24 41.2483 206.659 36.2762 206.659 30.6854C206.659 26.9552 207.046 23.8482 207.824 21.3644C208.795 17.9446 210.541 16.39 212.874 16.39ZM241.23 20.7411C242.202 22.6063 242.592 24.7796 242.592 27.2656C242.592 29.439 242.202 30.9936 241.427 32.2355C240.455 33.7901 239.485 34.4111 238.123 34.4111L236.57 33.7901V18.5656C236.57 18.2551 236.957 17.9446 237.542 17.9446C239.094 17.9446 240.258 18.876 241.23 20.7411ZM148.39 68.5837L148.777 67.0291L149.749 66.4081C150.138 66.4081 150.527 66.7209 150.721 67.0291L151.11 68.5837C151.11 69.2024 150.913 69.8279 150.721 70.1383C150.528 70.4488 150.14 70.7593 149.749 70.7593L148.777 70.1383C148.535 69.7117 148.398 69.1596 148.39 68.5837ZM2.52616 4.89559C3.10846 4.89559 3.49667 5.20607 3.69077 5.51654C4.07897 6.44796 4.27307 8.0026 4.27307 10.1759V51.4963C4.27307 51.8067 3.88487 52.1172 3.30115 52.1172L0.776408 52.4277V55.5347H12.6251L18.0628 55.2242C20.1993 54.9115 21.9477 54.2905 23.3064 53.3591C25.2488 52.4277 26.803 50.873 27.9677 48.6997C29.1172 46.2918 29.7324 43.3398 29.716 40.3101C29.716 32.5437 26.6089 27.5716 20.392 25.396C22.7241 24.4646 24.471 23.2227 25.4415 21.9785C27.1898 19.8029 28.1603 17.0086 28.1603 13.5889C28.1603 11.4156 27.578 9.23997 26.6061 7.06438C24.6637 3.64916 21.5566 1.78179 17.0895 1.78179H0V4.88879H2.52616V4.89559ZM39.2341 15.1481L34.3787 32.8542C31.4643 44.0403 29.9115 50.5626 29.5219 52.1172C29.5219 52.4277 29.3278 52.7359 29.1337 53.0486H27.1927V55.5347H35.1565V53.0486H32.2421L32.048 52.1172C32.048 51.1858 32.4363 49.0102 33.02 46.2159L34.1846 41.5543H41.7602C43.3145 48.6997 44.0923 52.1172 44.0923 52.4277C44.0923 52.7382 43.8982 53.0486 43.5086 53.0486H41.7602V55.5347H53.4148V53.0486H52.2488C51.6665 53.0486 51.2769 52.7359 51.0828 51.8045L49.7241 47.1451L45.4496 29.1262C43.7027 21.9808 42.9248 17.9401 42.9248 17.3191L43.5071 16.0772C43.7012 15.7667 43.8953 15.4563 43.8953 15.1458C43.8953 14.5248 43.7012 14.2121 43.3116 14.2121L39.2341 15.1481ZM13.9852 5.51654C15.9277 5.51654 17.4819 6.44797 18.8406 8.62356C20.1993 10.7969 20.7831 13.5934 20.7831 16.7004C20.7831 18.5656 20.589 20.1179 20.2008 21.3598C19.6184 22.9145 18.842 24.1564 17.8701 24.4668L12.6265 23.8459V6.44797C12.6251 5.82702 13.0133 5.51654 13.9852 5.51654ZM12.6251 38.4495V26.9552C15.9277 26.9552 18.2583 28.5098 19.8111 31.925C20.9772 34.4111 21.5595 37.2076 21.5595 40.3146C21.5595 43.4217 20.9757 46.2182 19.8111 48.3915C18.4524 50.5671 16.8982 51.809 14.9558 51.809L13.7897 51.4985C13.4427 51.255 13.1656 50.8118 13.0133 50.2566C12.8192 48.702 12.6251 44.9718 12.6251 38.4495ZM34.7669 38.7577L38.2621 26.0215L41.1765 38.7577H34.7669ZM56.3264 21.3598V52.4277C56.3194 52.5887 56.2763 52.7403 56.2049 52.8544C56.1336 52.9685 56.0388 53.0375 55.9382 53.0486H54.1912V55.5347H66.0385V53.0486H63.7079C63.1256 53.0486 62.736 50.8731 62.736 46.8346V37.2031H64.6784L67.3972 46.8346C68.5633 50.5648 69.5338 53.0486 70.5043 54.6033C70.6984 54.9138 70.8925 55.2242 71.2821 55.5347H78.8563V53.0486C78.0799 53.0486 77.3021 52.4277 76.7198 51.494C74.5833 48.0765 72.4467 42.4834 69.922 35.338C71.6689 35.0275 73.029 33.7856 74.001 31.61C74.7774 30.0554 75.1656 28.8135 75.1656 27.2611C75.1656 21.9785 73.8069 18.5633 70.8925 16.3877C69.4214 15.3659 67.835 14.8368 66.2312 14.833H53.2179V17.3191H55.1603C55.5485 17.3191 55.7441 17.6319 55.9367 17.9401C56.1323 18.2551 56.3264 19.497 56.3264 21.3598ZM63.7065 17.9446C65.0652 17.9446 66.2312 18.876 67.2031 20.7411C68.1736 22.6063 68.5619 24.7796 68.5619 26.9552C68.5619 29.4412 68.1737 31.3041 67.3958 32.8565C66.4239 34.0984 65.2593 34.7216 63.8992 34.7216H62.7346V18.5656C62.736 18.2551 63.1242 17.9446 63.7065 17.9446ZM81.9634 21.3598V52.4277C81.9564 52.5887 81.9133 52.7403 81.842 52.8544C81.7706 52.9685 81.6759 53.0375 81.5752 53.0486H79.8268V55.5347H88.373C92.0623 55.5347 94.7826 54.9138 96.3368 53.9801C99.638 52.1172 101.192 48.6997 101.192 44.0381C101.192 38.1368 98.8616 34.4066 94.1989 32.8519C95.9472 31.9205 97.1132 30.9891 98.0837 30.0576C99.4425 28.503 100.026 26.6401 100.026 23.8436C100.026 22.2912 99.638 20.7366 98.8601 19.1842C97.5014 16.3877 94.9753 14.8353 91.6741 14.8353H78.8549V17.3214H80.7974C81.1856 17.3214 81.3811 17.6341 81.5752 17.9423C81.7693 18.2551 81.9634 19.497 81.9634 21.3598ZM103.33 17.3214H101.386V14.8353H121.781L121.393 21.3598C121.199 21.9808 121.005 22.2935 120.617 22.2935C120.228 22.2935 120.033 21.983 120.033 21.0516L119.645 19.8074L118.868 18.876L115.566 17.9446H111.098L110.904 18.876V32.2355H113.041C115.177 32.2355 116.538 31.925 117.12 31.6168C117.508 31.3063 117.702 30.6854 117.702 29.7517V27.5784H119.062V38.7623H117.702V37.8286C117.702 36.5844 117.508 35.9635 117.314 35.6553C116.926 35.3425 115.954 35.0343 114.401 35.0343H110.904V42.8007C110.904 46.8392 110.904 49.6357 111.098 51.1903C111.294 52.1217 111.487 52.7427 111.875 52.7427L117.896 52.124C120.033 51.5031 121.199 50.2612 121.781 48.7065L122.559 47.7728C122.947 47.7728 123.141 48.0856 123.141 48.7065C123.141 49.6379 122.753 51.8113 121.975 55.5415H102.358V53.0554H104.107C104.301 53.0554 104.495 52.7427 104.495 52.4345V21.3598C104.495 19.497 104.299 18.2528 104.107 17.9423C103.912 17.6341 103.717 17.3214 103.33 17.3214ZM92.2593 31.925L88.3744 31.6145V18.5656C88.3744 18.2551 88.7626 17.9446 89.3463 17.9446C90.7051 17.9446 92.0652 18.5655 93.0357 20.1202C94.0062 21.6748 94.3958 23.8482 94.3958 26.332C94.3958 27.5761 94.2003 28.818 94.0076 29.7494C93.618 30.9913 93.0343 31.6145 92.2593 31.925ZM90.1213 52.7382L89.1508 52.4277C88.9567 52.4277 88.7626 52.1172 88.7626 51.4963C88.5671 50.5648 88.3744 47.4578 88.3744 42.7984V34.0983C90.705 34.0983 92.4534 35.3403 93.8121 37.8286C94.784 39.6914 95.1722 41.867 95.1722 44.0426C95.1722 46.2182 94.5885 48.3915 93.618 49.9439C92.6461 51.8067 91.4814 52.7382 90.1213 52.7382Z" fill="#EBBE1D"/>
</svg>
