<svg width="224" height="45" viewBox="0 0 224 45" fill="none" xmlns="http://www.w3.org/2000/svg">
<path d="M26.7188 30.625C27.0104 30.625 29.0312 26.5833 32.7812 18.5C36.5312 10.3958 38.8438 5.67708 39.7188 4.34375C40.5938 3.01042 41.6042 2.11458 42.75 1.65625C43.8958 1.17708 45.7188 0.9375 48.2188 0.9375C50.7396 0.9375 52 1.52083 52 2.6875L51.25 3.625L50.2812 4.65625C49.6562 5.46875 49.2083 6.41667 48.9375 7.5C48.6875 8.5625 48.5625 10.3229 48.5625 12.7812C48.5625 23.2396 48.8333 30.8646 49.375 35.6562C49.5833 37.5312 50.2604 39.0104 51.4062 40.0938C52.5521 41.1562 53.125 41.8646 53.125 42.2188L52.3438 42.7812C51.3438 43.2396 49.375 43.4688 46.4375 43.4688C43.5 43.4688 41.6562 43.0833 40.9062 42.3125L40.5938 41.625C40.5938 41.0208 40.8229 39.7812 41.2812 37.9062C41.7396 36.0104 41.9688 34.125 41.9688 32.25C41.9688 18.5833 41.5312 11.75 40.6562 11.75C40.2188 11.75 38.2292 15.9792 34.6875 24.4375C31.1458 32.8958 28.9688 37.8646 28.1562 39.3438C27.3646 40.8021 26.3125 41.5312 25 41.5312C24.0833 41.5312 21.5729 36.5312 17.4688 26.5312C13.3854 16.5104 10.9896 11.5 10.2812 11.5C9.69792 11.5 9.40625 16.6146 9.40625 26.8438C9.40625 31.3854 9.47917 34.1771 9.625 35.2188C9.77083 36.2604 10.0104 37.5104 10.3438 38.9688C10.6979 40.4271 10.875 41.3958 10.875 41.875C10.875 42.3542 10.5521 42.75 9.90625 43.0625C9.26042 43.375 8.42708 43.5312 7.40625 43.5312H5.6875C2.25 43.5312 0.53125 43.0938 0.53125 42.2188C0.53125 41.7812 1.11458 41.0625 2.28125 40.0625C3.46875 39.0417 4.15625 38.1667 4.34375 37.4375C4.55208 36.6875 4.82292 32.9375 5.15625 26.1875C5.48958 19.4167 5.65625 14.8229 5.65625 12.4062C5.65625 9.98958 5.51042 8.3125 5.21875 7.375C4.92708 6.41667 4.25 5.41667 3.1875 4.375C2.14583 3.33333 1.625 2.54167 1.625 2C1.625 1.33333 3.55208 1 7.40625 1C8.88542 1 10.1667 1.20833 11.25 1.625C12.3333 2.02083 13.3958 2.98958 14.4375 4.53125C15.5 6.05208 17.7083 10.7812 21.0625 18.7188C24.4167 26.6562 26.3021 30.625 26.7188 30.625Z" fill="#141414"/>
<path d="M75.8438 29.5312H75.3125C72.5833 29.5312 70.3021 30.1458 68.4688 31.375C66.6562 32.5833 65.75 34.0938 65.75 35.9062V36.5312C65.75 37.5938 66.0729 38.5521 66.7188 39.4062C67.3854 40.2396 68.2396 40.6562 69.2812 40.6562L69.6562 40.7188H70.5938C72.7604 40.7188 74.5312 39.8333 75.9062 38.0625C76.5104 37.2917 76.8125 35.7083 76.8125 33.3125C76.8125 33.125 76.8125 32.9375 76.8125 32.75L76.8438 32V31.25C76.8438 30.1042 76.5104 29.5312 75.8438 29.5312ZM60.6562 19.4375C60.6562 17.8958 61.875 16.5208 64.3125 15.3125C66.7708 14.0833 69.3125 13.4688 71.9375 13.4688C72.0208 13.4688 72.1042 13.4688 72.1875 13.4688C74.6875 13.4688 76.6875 13.7708 78.1875 14.375C81.2292 15.5833 82.9688 18.1458 83.4062 22.0625C83.4479 22.4583 83.4688 25.0833 83.4688 29.9375C83.4688 34.7708 83.5938 37.6042 83.8438 38.4375C84.1146 39.2708 84.8229 39.8854 85.9688 40.2812C87.1354 40.6771 87.7188 41.0521 87.7188 41.4062C87.7188 42.1562 87.3438 42.7292 86.5938 43.125C85.0938 43.9167 83.6146 44.3125 82.1562 44.3125C80.7188 44.3125 79.6458 43.9792 78.9375 43.3125C77.6667 42.125 76.9896 41.5312 76.9062 41.5312C76.8229 41.5312 75.6458 42.0625 73.375 43.125C71.1042 44.1667 69.1146 44.6875 67.4062 44.6875C64.8438 44.6875 62.8333 43.9792 61.375 42.5625C59.9167 41.1458 59.1875 39.4271 59.1875 37.4062V36.625C59.1875 34.4583 60.125 32.5521 62 30.9062C63.875 29.2604 67.25 27.9792 72.125 27.0625C73.8958 26.7292 75.0104 26.4167 75.4688 26.125C76.3854 25.5417 76.8438 24.3542 76.8438 22.5625C76.8438 20.7708 76.3646 19.3958 75.4062 18.4375C74.4479 17.4792 73.1667 17 71.5625 17C69.9583 17 68.4062 17.9375 66.9062 19.8125C65.4271 21.6667 64.0729 22.5938 62.8438 22.5938C61.3854 22.5938 60.6562 21.5417 60.6562 19.4375Z" fill="#141414"/>
<path d="M115.438 22.5625C114.562 22.5625 113.344 21.6562 111.781 19.8438C110.24 18.0312 108.448 17.125 106.406 17.125C104.385 17.125 102.688 18.1354 101.312 20.1562C99.9375 22.1562 99.25 25 99.25 28.6875C99.25 32.375 100.094 35.2604 101.781 37.3438C103.49 39.4062 105.708 40.4375 108.438 40.4375C109.938 40.4375 111.188 40.25 112.188 39.875C113.208 39.5 114.146 39.1042 115 38.6875C115.875 38.25 116.49 38.0312 116.844 38.0312C117.448 38.0312 117.75 38.4271 117.75 39.2188C117.75 40.4271 116.531 41.625 114.094 42.8125C111.656 44 109.292 44.5938 107 44.5938C102.542 44.5938 98.9583 43.1979 96.25 40.4062C95.1458 39.2604 94.2188 37.7917 93.4688 36C92.7188 34.1875 92.3438 32.25 92.3438 30.1875V28.6562C92.3438 28.6146 92.3438 28.5625 92.3438 28.5C92.3438 28.4583 92.3438 28.4167 92.3438 28.375C92.3438 26.5625 92.75 24.6875 93.5625 22.75C95.1667 18.9583 97.75 16.3333 101.312 14.875C103.375 14.0417 105.427 13.625 107.469 13.625H108.188C111 13.625 113.385 14.1146 115.344 15.0938C116.927 15.8854 117.719 17.2083 117.719 19.0625C117.719 20.2917 117.469 21.1875 116.969 21.75C116.49 22.2917 115.979 22.5625 115.438 22.5625Z" fill="#141414"/>
<path d="M127.562 43.75C124.625 43.75 123.156 43.3333 123.156 42.5C123.156 41.8125 123.542 41.25 124.312 40.8125C125.708 40.0208 126.521 39.3125 126.75 38.6875C126.979 38.0417 127.094 35.0312 127.094 29.6562C127.094 24.2604 126.927 21.1042 126.594 20.1875C126.281 19.25 125.698 18.4792 124.844 17.875C123.99 17.2708 123.562 16.7812 123.562 16.4062C123.562 16.0312 123.844 15.6771 124.406 15.3438C125.719 14.5729 127.802 14.1875 130.656 14.1875C131.51 14.1875 132.177 14.4792 132.656 15.0625C132.823 15.2708 133.052 15.7292 133.344 16.4375C133.656 17.125 133.865 17.4688 133.969 17.4688C134.365 17.4479 134.979 17.1667 135.812 16.625C138.688 14.6875 141.292 13.7188 143.625 13.7188H144.688C146.375 13.7188 147.896 14.1354 149.25 14.9688C150.604 15.8021 151.646 17.0521 152.375 18.7188C153.125 20.3854 153.5 24.0208 153.5 29.625C153.5 35.2083 153.615 38.3333 153.844 39C154.094 39.6458 154.771 40.25 155.875 40.8125C157 41.375 157.562 41.9271 157.562 42.4688C157.562 43.4062 154.604 43.875 148.688 43.875H147.75C145.875 43.875 144.938 43.4271 144.938 42.5312C144.938 42.3438 145.167 41.8958 145.625 41.1875C146.083 40.4583 146.396 39.6562 146.562 38.7812C146.729 37.9062 146.812 35.0312 146.812 30.1562C146.812 25.2604 146.51 22.1146 145.906 20.7188C145.073 18.8021 143.688 17.8438 141.75 17.8438C140.333 17.8438 138.958 18.1771 137.625 18.8438C136.312 19.4896 135.354 20.4167 134.75 21.625C134.167 22.8125 133.875 25.6771 133.875 30.2188C133.875 34.7396 134 37.4792 134.25 38.4375C134.5 39.375 134.802 40.1354 135.156 40.7188L136.312 42.5938C136.312 43.4062 134.677 43.8125 131.406 43.8125L129.5 43.75H127.562Z" fill="#141414"/>
<path d="M193.469 40.5938C194.385 41.3021 194.844 41.8125 194.844 42.125C194.844 42.4167 194.688 42.6979 194.375 42.9688C193.479 43.7812 191.562 44.1875 188.625 44.1875C187.667 44.1875 186.917 44.0312 186.375 43.7188C185.854 43.3854 185.385 42.7917 184.969 41.9375C184.573 41.0833 184.24 40.6562 183.969 40.6562C183.698 40.6771 183.094 41.0208 182.156 41.6875C179.531 43.5833 177.021 44.5312 174.625 44.5312C174.604 44.5312 174.573 44.5312 174.531 44.5312H173.594C170.156 44.5312 167.667 43.0729 166.125 40.1562C165.333 38.6354 164.927 34.9167 164.906 29C164.906 23.0625 164.812 19.8021 164.625 19.2188C164.438 18.6146 163.771 18.0521 162.625 17.5312C161.5 16.9896 160.938 16.5729 160.938 16.2812C160.938 15.5104 161.302 15.0104 162.031 14.7812C163.656 14.2604 165.729 14 168.25 14C169.708 14 170.635 14.5938 171.031 15.7812C171.552 17.3021 171.812 20.9375 171.812 26.6875C171.812 32.4167 172.062 35.8958 172.562 37.125C173.417 39.2292 174.969 40.2812 177.219 40.2812C178.385 40.2812 179.542 39.9792 180.688 39.375C181.854 38.7708 182.76 37.9583 183.406 36.9375C184.052 35.9167 184.375 33.1146 184.375 28.5312C184.375 23.9271 184.219 21.0312 183.906 19.8438C183.615 18.6562 183.156 17.7292 182.531 17.0625C181.906 16.375 181.594 15.8333 181.594 15.4375C181.594 14.5208 184.042 14.0625 188.938 14.0625C189.958 14.0625 190.625 14.2917 190.938 14.75C191.25 15.1875 191.406 16 191.406 17.1875L191.312 19.0312L191.156 27.3438C191.156 32.7604 191.312 36.1458 191.625 37.5C191.938 38.8333 192.552 39.8646 193.469 40.5938Z" fill="#141414"/>
<path d="M215.562 42.7812C215.562 43.5938 213.677 44 209.906 44H206.594L205.281 43.9375L203.312 43.9062C201.104 43.9062 200 43.5104 200 42.7188C200 42.1562 200.49 41.5625 201.469 40.9375C202.469 40.2917 203.135 39.4688 203.469 38.4688C203.823 37.4479 204 34.4583 204 29.5C204 24.5417 203.833 21.5312 203.5 20.4688C203.188 19.4062 202.688 18.6458 202 18.1875C200.771 17.375 200.156 16.7812 200.156 16.4062C200.156 16.0312 200.375 15.6979 200.812 15.4062C202.104 14.5312 204.292 14.0938 207.375 14.0938H207.969C209.156 14.0938 210 14.6979 210.5 15.9062C211 17.0938 211.406 17.6875 211.719 17.6875C212.031 17.6875 212.562 17.3958 213.312 16.8125C214.083 16.2292 215 15.6458 216.062 15.0625C217.146 14.4792 218.344 14.1875 219.656 14.1875C220.969 14.1875 221.969 14.5312 222.656 15.2188C223.365 15.8854 223.719 16.75 223.719 17.8125C223.698 18.8958 223.417 19.7083 222.875 20.25C222.333 20.7917 221.75 21.0625 221.125 21.0625C220.5 21.0625 219.677 20.8125 218.656 20.3125C217.635 19.7917 216.781 19.5312 216.094 19.5312C215.406 19.5312 214.656 19.8229 213.844 20.4062C213.031 20.9688 212.333 21.9896 211.75 23.4688C211.188 24.9271 210.906 27.4375 210.906 31C210.906 34.5417 211.156 36.8333 211.656 37.875C212.156 38.8958 212.927 39.8333 213.969 40.6875C215.031 41.5417 215.562 42.2396 215.562 42.7812Z" fill="#141414"/>
</svg>
