<svg viewBox="0 0 24 24" xmlns="http://www.w3.org/2000/svg" height="48" width="48"><path d="m14.853 10.763-.776-9.346a1 1 0 0 0-1-.917H10.92a1 1 0 0 0-1 .917l-.775 9.346" fill="none" stroke="#000000" stroke-linecap="round" stroke-linejoin="round"></path><path d="M5.019 13.92a2.111 2.111 0 0 1 .4-1.677c1.6-2.222 11.562-2.243 13.163 0a2.122 2.122 0 0 1 .4 1.677l-2.143 8a2 2 0 0 1-1.956 1.58H9.117a2 2 0 0 1-1.956-1.58Z" fill="none" stroke="#000000" stroke-linecap="round" stroke-linejoin="round"></path><path d="M14.561 20.071a.5.5 0 0 1-.495.429H9.934a.5.5 0 0 1-.495-.429l-.857-6a.5.5 0 0 1 .495-.571h5.847a.5.5 0 0 1 .5.571Z" fill="none" stroke="#000000" stroke-linecap="round" stroke-linejoin="round"></path></svg>