<svg width="21" height="20" viewBox="0 0 21 20" fill="none" xmlns="http://www.w3.org/2000/svg">
<rect x="2.09998" y="1.60001" width="16" height="16" rx="8" fill="url(#paint0_linear_64_7)"/>
<path d="M10.7611 14.861C10.6762 14.774 10.6338 14.66 10.6338 14.5187C10.6338 14.3774 10.6762 14.2633 10.7611 14.1764L14.3599 10.4928H6.47771C6.3397 10.4928 6.22558 10.4466 6.13535 10.3543C6.04512 10.2619 6 10.1451 6 10.0038C6 9.86258 6.04512 9.74577 6.13535 9.6534C6.22558 9.56104 6.3397 9.51486 6.47771 9.51486H14.3599L10.7611 5.83126C10.6762 5.74433 10.6338 5.62752 10.6338 5.48082C10.6338 5.33413 10.6762 5.21732 10.7611 5.13039C10.8461 5.04346 10.9575 5 11.0955 5C11.2335 5 11.345 5.04346 11.4299 5.13039L15.8567 9.66155C15.9098 9.71588 15.9469 9.77021 15.9682 9.82454C15.9894 9.87887 16 9.93864 16 10.0038C16 10.0582 15.9894 10.1152 15.9682 10.175C15.9469 10.2347 15.9098 10.2918 15.8567 10.3461L11.4299 14.8773C11.345 14.9642 11.2335 15.005 11.0955 14.9995C10.9575 14.9941 10.8461 14.9479 10.7611 14.861Z" fill="#141414"/>
<defs>
<linearGradient id="paint0_linear_64_7" x1="10.1" y1="1.60001" x2="10.1" y2="17.6" gradientUnits="userSpaceOnUse">
<stop stop-color="#A0F781"/>
<stop offset="1" stop-color="#60E432"/>
</linearGradient>
</defs>
</svg>
